<?xml version="1.0" encoding="UTF-8" standalone="no"?>
<!DOCTYPE svg PUBLIC "-//W3C//DTD SVG 1.1//EN" "http://www.w3.org/Graphics/SVG/1.1/DTD/svg11.dtd">
<svg width="100%" height="100%" viewBox="0 0 24 24" version="1.1" xmlns="http://www.w3.org/2000/svg" xmlns:xlink="http://www.w3.org/1999/xlink" xml:space="preserve" xmlns:serif="http://www.serif.com/" style="fill-rule:evenodd;clip-rule:evenodd;stroke-linecap:round;stroke-linejoin:round;">
    <path d="M9,19C6.2,19 4,16.8 4,14L4,10C4,5.611 7.611,2 12,2C16.389,2 20,5.611 20,10L20,14C20,16.8 17.8,19 15,19L9,19Z" style="fill:rgb(53,112,183);fill-rule:nonzero;stroke:black;stroke-width:2px;"/>
    <path d="M8,3.1L8,7C8,9.194 9.806,11 12,11C14.194,11 16,9.194 16,7L16,3.1" style="fill:none;fill-rule:nonzero;stroke:black;stroke-width:2px;"/>
    <path d="M9,15L8,14" style="fill:none;fill-rule:nonzero;stroke:rgb(255,255,128);stroke-width:2px;"/>
    <path d="M15,15L16,14" style="fill:none;fill-rule:nonzero;stroke:rgb(255,255,128);stroke-width:2px;"/>
    <path d="M8,19L6,22" style="fill:none;fill-rule:nonzero;stroke:black;stroke-width:2px;"/>
    <path d="M16,19L18,22" style="fill:none;fill-rule:nonzero;stroke:black;stroke-width:2px;"/>
</svg>
